# xmcd
#
# Track frame offsets:
#	150
#	15096
#	28615
#	42402
#	60985
#	75685
#	88290
#	101169
#	114022
#	132311
#	147831
#	164743
#	184486
#	202068
#	219394
#	236042
#	251275
#	267154
#	284314
#
# Disc length: 3984 seconds
#
# Revision: 1
# Processed by: cddbd v1.5.2PL0 Copyright (c) Steve Scherf et al.
# Submitted via: audiograbber 1.83.01
#
DISCID=0e0f8e13
DTITLE=Various Artist - Hott Country 127
DYEAR=2006
DGENRE=Country
TTITLE0=Goerge Canyon - Drinkin' Thinkin'
TTITLE1=Toby Keith - Crash Here Tonight
TTITLE2=Adam Gregory - She's So California
TTITLE3=Keith Urban - Once In A Lifetime (edit)
TTITLE4=Chris Young - Drinkin' Me Lonely
TTITLE5=Vince Gill - The Reason Why
TTITLE6=Aaron Tippin - Ready To Rock ( In A Country Kind Of Way )
TTITLE7=Aaron Lines - Seeing Things
TTITLE8=Rascal Flatts - My Wish
TTITLE9=Eric Church - Two Pink Lines
TTITLE10=Randy Rogers Band - Kiss Me In The Dark
TTITLE11=Brad Paisley - She's Everything
TTITLE12=Steve Fox - Little Footprints
TTITLE13=Joe Nichols - I'll Wait For You
TTITLE14=Katrina Elam - Love Is
TTITLE15=Gil Grand - Never Saw Her Leaving
TTITLE16=Sugarland - Want To
TTITLE17=Lost Trailers - Why Me
TTITLE18=Waylon Jennings - Luchenbach Texas
EXTD=Sept. 2006
EXTT0=
EXTT1=
EXTT2=
EXTT3=
EXTT4=
EXTT5=
EXTT6=
EXTT7=
EXTT8=
EXTT9=
EXTT10=
EXTT11=
EXTT12=
EXTT13=
EXTT14=
EXTT15=
EXTT16=
EXTT17=
EXTT18=
PLAYORDER=
